<svg width="24" height="24" viewBox="0 0 24 24" fill="none" xmlns="http://www.w3.org/2000/svg">
<mask id="mask0_135_204" style="mask-type:alpha" maskUnits="userSpaceOnUse" x="0" y="0" width="24" height="24">
<rect width="24" height="24" fill="#D9D9D9"/>
</mask>
<g mask="url(#mask0_135_204)">
<path d="M11.925 18.475C12.3583 18.475 12.721 18.325 13.013 18.025C13.3043 17.725 13.45 17.3667 13.45 16.95C13.45 16.5167 13.3043 16.1543 13.013 15.863C12.721 15.571 12.3583 15.425 11.925 15.425C11.5083 15.425 11.15 15.571 10.85 15.863C10.55 16.1543 10.4 16.5083 10.4 16.925C10.4 17.3583 10.55 17.725 10.85 18.025C11.15 18.325 11.5083 18.475 11.925 18.475ZM10.7 14.325H13.2C13.2 13.725 13.2543 13.2457 13.363 12.887C13.471 12.529 13.85 12.0417 14.5 11.425C14.9333 11.025 15.2793 10.6127 15.538 10.188C15.796 9.76267 15.925 9.24167 15.925 8.625C15.925 7.59167 15.55 6.80833 14.8 6.275C14.05 5.74167 13.1583 5.475 12.125 5.475C11.025 5.475 10.1377 5.76233 9.463 6.337C8.78767 6.91233 8.325 7.625 8.075 8.475L10.3 9.325C10.3333 9.04167 10.4877 8.70833 10.763 8.325C11.0377 7.94167 11.475 7.75 12.075 7.75C12.525 7.75 12.8667 7.875 13.1 8.125C13.3333 8.375 13.45 8.64167 13.45 8.925C13.45 9.225 13.35 9.52067 13.15 9.812C12.95 10.104 12.7083 10.3583 12.425 10.575C11.625 11.2917 11.1377 11.825 10.963 12.175C10.7877 12.525 10.7 13.2417 10.7 14.325ZM12 22.875C10.5 22.875 9.08767 22.5917 7.763 22.025C6.43767 21.4583 5.28333 20.6833 4.3 19.7C3.31667 18.7167 2.54167 17.5627 1.975 16.238C1.40833 14.9127 1.125 13.5 1.125 12C1.125 10.4833 1.40833 9.06233 1.975 7.737C2.54167 6.41233 3.31667 5.25833 4.3 4.275C5.28333 3.29167 6.43767 2.52067 7.763 1.962C9.08767 1.404 10.5 1.125 12 1.125C13.5167 1.125 14.9373 1.404 16.262 1.962C17.5873 2.52067 18.7417 3.29167 19.725 4.275C20.7083 5.25833 21.4793 6.41233 22.038 7.737C22.596 9.06233 22.875 10.4833 22.875 12C22.875 13.5167 22.596 14.9333 22.038 16.25C21.4793 17.5667 20.7083 18.7167 19.725 19.7C18.7417 20.6833 17.5873 21.4583 16.262 22.025C14.9373 22.5917 13.5167 22.875 12 22.875Z" fill="white"/>
</g>
</svg>
