<svg width="24" height="24" viewBox="0 0 24 24" fill="none" xmlns="http://www.w3.org/2000/svg">
<mask id="mask0_150_462" style="mask-type:alpha" maskUnits="userSpaceOnUse" x="0" y="0" width="24" height="24">
<rect width="24" height="24" fill="#D9D9D9"/>
</mask>
<g mask="url(#mask0_150_462)">
<path d="M9.70001 18.15C8.90001 18.15 8.22934 17.879 7.68801 17.337C7.14601 16.7957 6.87501 16.125 6.87501 15.325V3.30001C6.87501 2.50001 7.14601 1.82901 7.68801 1.28701C8.22934 0.745673 8.90001 0.475006 9.70001 0.475006H18.675C19.475 0.475006 20.15 0.745673 20.7 1.28701C21.25 1.82901 21.525 2.50001 21.525 3.30001V15.325C21.525 16.125 21.25 16.7957 20.7 17.337C20.15 17.879 19.475 18.15 18.675 18.15H9.70001ZM4.32501 23.525C3.52501 23.525 2.85001 23.254 2.30001 22.712C1.75001 22.1707 1.47501 21.5 1.47501 20.7V7.12501C1.47501 6.74167 1.61267 6.40834 1.88801 6.12501C2.16267 5.84167 2.50001 5.70001 2.90001 5.70001C3.30001 5.70001 3.63767 5.84167 3.91301 6.12501C4.18767 6.40834 4.32501 6.74167 4.32501 7.12501V20.7H14.85C15.25 20.7 15.5877 20.8373 15.863 21.112C16.1377 21.3873 16.275 21.725 16.275 22.125C16.275 22.5083 16.1377 22.8373 15.863 23.112C15.5877 23.3873 15.25 23.525 14.85 23.525H4.32501Z" fill="black"/>
</g>
</svg>
