<svg width="24" height="24" viewBox="0 0 24 24" fill="none" xmlns="http://www.w3.org/2000/svg">
<path d="M2.0502 21.5502V19.3248H4.35V2.4252H15.3V3.4998H19.6752V19.3248H21.9498V21.5502H17.4498V5.7252H15.3V21.5502H2.0502ZM10.875 13.1502C11.2082 13.1502 11.4832 13.0418 11.7 12.825C11.9168 12.6082 12.0252 12.3332 12.0252 12C12.0252 11.6832 11.9168 11.4124 11.7 11.1876C11.4832 10.9624 11.2166 10.8498 10.9002 10.8498C10.5666 10.8498 10.2874 10.9582 10.0626 11.175C9.8374 11.3918 9.7248 11.6668 9.7248 12C9.7248 12.3168 9.8374 12.5876 10.0626 12.8124C10.2874 13.0376 10.5582 13.1502 10.875 13.1502Z" fill="white"/>
</svg>
