<svg width="24" height="24" viewBox="0 0 24 24" fill="none" xmlns="http://www.w3.org/2000/svg">
<path d="M11.025 17.25H13.0998V13.125H17.25V11.025H13.0998V6.74999H11.025V11.025H6.75V13.125H11.025V17.25ZM12 22.575C10.5332 22.575 9.1582 22.3 7.875 21.75C6.5918 21.2 5.471 20.4458 4.5126 19.4874C3.5542 18.529 2.8 17.404 2.25 16.1124C1.7 14.8208 1.425 13.45 1.425 12C1.425 10.5332 1.7042 9.15819 2.2626 7.87499C2.821 6.59179 3.5792 5.46679 4.5372 4.49999C5.4956 3.53319 6.6166 2.77899 7.9002 2.23739C9.1834 1.69579 10.55 1.42499 12 1.42499C13.4668 1.42499 14.846 1.69579 16.1376 2.23739C17.4292 2.77899 18.55 3.52899 19.5 4.48739C20.45 5.44579 21.2 6.57079 21.75 7.86239C22.3 9.15399 22.575 10.5332 22.575 12C22.575 13.4668 22.3042 14.8376 21.7626 16.1124C21.221 17.3876 20.4668 18.5044 19.5 19.4628C18.5332 20.4208 17.4082 21.179 16.125 21.7374C14.8418 22.2958 13.4668 22.575 12 22.575Z" fill="white"/>
</svg>
